<mxfile host="app.diagrams.net" modified="2021-07-21T09:44:59.442Z" agent="5.0 (Windows NT 10.0; Win64; x64) AppleWebKit/537.36 (KHTML, like Gecko) Chrome/90.0.4430.72 Safari/537.36" etag="UyreooOKNm1PCh0b80XF" version="14.8.4" type="github">
  <diagram id="keHC-3Po6n7dFOt8Md2U" name="第 1 页">
    <mxGraphModel dx="1422" dy="762" grid="0" gridSize="10" guides="1" tooltips="1" connect="1" arrows="1" fold="1" page="1" pageScale="1" pageWidth="1169" pageHeight="827" math="0" shadow="0">
      <root>
        <mxCell id="0" />
        <mxCell id="1" parent="0" />
        <mxCell id="1QFMjTsGRwsi1aNZfZPo-17" value="incpath" style="swimlane;fontSize=16;" vertex="1" parent="1">
          <mxGeometry x="660" y="324" width="440" height="180" as="geometry" />
        </mxCell>
        <mxCell id="1QFMjTsGRwsi1aNZfZPo-16" value="cnt_inc2.v" style="shape=note;whiteSpace=wrap;html=1;backgroundOutline=1;darkOpacity=0.05;fontSize=16;fillColor=#D5E8D4;" vertex="1" parent="1QFMjTsGRwsi1aNZfZPo-17">
          <mxGeometry x="270" y="45" width="140" height="90" as="geometry" />
        </mxCell>
        <mxCell id="1QFMjTsGRwsi1aNZfZPo-15" value="cnt_dec1.v" style="shape=note;whiteSpace=wrap;html=1;backgroundOutline=1;darkOpacity=0.05;fontSize=16;fillColor=#D5E8D4;" vertex="1" parent="1QFMjTsGRwsi1aNZfZPo-17">
          <mxGeometry x="30" y="56" width="140" height="90" as="geometry" />
        </mxCell>
        <mxCell id="1QFMjTsGRwsi1aNZfZPo-8" value="include" style="edgeStyle=orthogonalEdgeStyle;rounded=0;orthogonalLoop=1;jettySize=auto;html=1;fontSize=16;curved=1;" edge="1" parent="1" source="1QFMjTsGRwsi1aNZfZPo-1" target="1QFMjTsGRwsi1aNZfZPo-2">
          <mxGeometry relative="1" as="geometry" />
        </mxCell>
        <mxCell id="1QFMjTsGRwsi1aNZfZPo-9" value="include" style="edgeStyle=orthogonalEdgeStyle;rounded=0;orthogonalLoop=1;jettySize=auto;html=1;entryX=0.5;entryY=0;entryDx=0;entryDy=0;entryPerimeter=0;fontSize=16;curved=1;" edge="1" parent="1" source="1QFMjTsGRwsi1aNZfZPo-1" target="1QFMjTsGRwsi1aNZfZPo-3">
          <mxGeometry relative="1" as="geometry" />
        </mxCell>
        <mxCell id="1QFMjTsGRwsi1aNZfZPo-1" value="twocounter.v" style="shape=note;whiteSpace=wrap;html=1;backgroundOutline=1;darkOpacity=0.05;fontSize=16;fillColor=#D5E8D4;" vertex="1" parent="1">
          <mxGeometry x="300" y="200" width="140" height="90" as="geometry" />
        </mxCell>
        <mxCell id="1QFMjTsGRwsi1aNZfZPo-2" value="cnt_dec1.v" style="shape=note;whiteSpace=wrap;html=1;backgroundOutline=1;darkOpacity=0.05;fontSize=16;fillColor=#D5E8D4;" vertex="1" parent="1">
          <mxGeometry x="180" y="369" width="140" height="90" as="geometry" />
        </mxCell>
        <mxCell id="1QFMjTsGRwsi1aNZfZPo-3" value="cnt_inc2.v" style="shape=note;whiteSpace=wrap;html=1;backgroundOutline=1;darkOpacity=0.05;fontSize=16;fillColor=#D5E8D4;" vertex="1" parent="1">
          <mxGeometry x="420" y="369" width="140" height="90" as="geometry" />
        </mxCell>
        <mxCell id="1QFMjTsGRwsi1aNZfZPo-6" value="incpath" style="swimlane;fontSize=16;" vertex="1" parent="1">
          <mxGeometry x="150" y="480" width="440" height="180" as="geometry" />
        </mxCell>
        <mxCell id="1QFMjTsGRwsi1aNZfZPo-4" value="dec_cnt.v" style="shape=note;whiteSpace=wrap;html=1;backgroundOutline=1;darkOpacity=0.05;fontSize=16;fillColor=#D5E8D4;" vertex="1" parent="1QFMjTsGRwsi1aNZfZPo-6">
          <mxGeometry x="30" y="60" width="140" height="90" as="geometry" />
        </mxCell>
        <mxCell id="1QFMjTsGRwsi1aNZfZPo-5" value="inc_cnt.v" style="shape=note;whiteSpace=wrap;html=1;backgroundOutline=1;darkOpacity=0.05;fontSize=16;fillColor=#D5E8D4;" vertex="1" parent="1QFMjTsGRwsi1aNZfZPo-6">
          <mxGeometry x="270" y="60" width="140" height="90" as="geometry" />
        </mxCell>
        <mxCell id="1QFMjTsGRwsi1aNZfZPo-10" value="include" style="edgeStyle=orthogonalEdgeStyle;rounded=0;orthogonalLoop=1;jettySize=auto;html=1;fontSize=16;curved=1;exitX=0.5;exitY=1;exitDx=0;exitDy=0;exitPerimeter=0;entryX=0.5;entryY=0;entryDx=0;entryDy=0;entryPerimeter=0;" edge="1" parent="1" source="1QFMjTsGRwsi1aNZfZPo-2" target="1QFMjTsGRwsi1aNZfZPo-4">
          <mxGeometry relative="1" as="geometry">
            <mxPoint x="380" y="300" as="sourcePoint" />
            <mxPoint x="260" y="379" as="targetPoint" />
          </mxGeometry>
        </mxCell>
        <mxCell id="1QFMjTsGRwsi1aNZfZPo-11" value="include" style="edgeStyle=orthogonalEdgeStyle;rounded=0;orthogonalLoop=1;jettySize=auto;html=1;fontSize=16;curved=1;exitX=0.5;exitY=1;exitDx=0;exitDy=0;exitPerimeter=0;" edge="1" parent="1" source="1QFMjTsGRwsi1aNZfZPo-3" target="1QFMjTsGRwsi1aNZfZPo-5">
          <mxGeometry relative="1" as="geometry">
            <mxPoint x="260" y="469" as="sourcePoint" />
            <mxPoint x="260" y="550" as="targetPoint" />
          </mxGeometry>
        </mxCell>
        <mxCell id="1QFMjTsGRwsi1aNZfZPo-12" value="include" style="edgeStyle=orthogonalEdgeStyle;rounded=0;orthogonalLoop=1;jettySize=auto;html=1;fontSize=16;curved=1;" edge="1" parent="1" source="1QFMjTsGRwsi1aNZfZPo-14" target="1QFMjTsGRwsi1aNZfZPo-15">
          <mxGeometry relative="1" as="geometry" />
        </mxCell>
        <mxCell id="1QFMjTsGRwsi1aNZfZPo-13" value="include" style="edgeStyle=orthogonalEdgeStyle;rounded=0;orthogonalLoop=1;jettySize=auto;html=1;entryX=0.5;entryY=0;entryDx=0;entryDy=0;entryPerimeter=0;fontSize=16;curved=1;" edge="1" parent="1" source="1QFMjTsGRwsi1aNZfZPo-14" target="1QFMjTsGRwsi1aNZfZPo-16">
          <mxGeometry relative="1" as="geometry" />
        </mxCell>
        <mxCell id="1QFMjTsGRwsi1aNZfZPo-14" value="twocounter.v" style="shape=note;whiteSpace=wrap;html=1;backgroundOutline=1;darkOpacity=0.05;fontSize=16;fillColor=#D5E8D4;" vertex="1" parent="1">
          <mxGeometry x="810" y="200" width="140" height="90" as="geometry" />
        </mxCell>
        <mxCell id="1QFMjTsGRwsi1aNZfZPo-20" value="include" style="edgeStyle=orthogonalEdgeStyle;rounded=0;orthogonalLoop=1;jettySize=auto;html=1;fontSize=16;curved=1;exitX=0.5;exitY=1;exitDx=0;exitDy=0;exitPerimeter=0;entryX=0.5;entryY=0;entryDx=0;entryDy=0;entryPerimeter=0;" edge="1" parent="1" source="1QFMjTsGRwsi1aNZfZPo-15" target="1QFMjTsGRwsi1aNZfZPo-18">
          <mxGeometry relative="1" as="geometry">
            <mxPoint x="890" y="300" as="sourcePoint" />
            <mxPoint x="770" y="379" as="targetPoint" />
          </mxGeometry>
        </mxCell>
        <mxCell id="1QFMjTsGRwsi1aNZfZPo-21" value="include" style="edgeStyle=orthogonalEdgeStyle;rounded=0;orthogonalLoop=1;jettySize=auto;html=1;fontSize=16;curved=1;exitX=0.5;exitY=1;exitDx=0;exitDy=0;exitPerimeter=0;" edge="1" parent="1" source="1QFMjTsGRwsi1aNZfZPo-16" target="1QFMjTsGRwsi1aNZfZPo-19">
          <mxGeometry relative="1" as="geometry">
            <mxPoint x="770" y="469" as="sourcePoint" />
            <mxPoint x="770" y="550" as="targetPoint" />
          </mxGeometry>
        </mxCell>
        <mxCell id="1QFMjTsGRwsi1aNZfZPo-18" value="dec_cnt.v" style="shape=note;whiteSpace=wrap;html=1;backgroundOutline=1;darkOpacity=0.05;fontSize=16;fillColor=#D5E8D4;" vertex="1" parent="1">
          <mxGeometry x="690" y="540" width="140" height="90" as="geometry" />
        </mxCell>
        <mxCell id="1QFMjTsGRwsi1aNZfZPo-19" value="inc_cnt.v" style="shape=note;whiteSpace=wrap;html=1;backgroundOutline=1;darkOpacity=0.05;fontSize=16;fillColor=#D5E8D4;" vertex="1" parent="1">
          <mxGeometry x="930" y="540" width="140" height="90" as="geometry" />
        </mxCell>
      </root>
    </mxGraphModel>
  </diagram>
</mxfile>
